<?xml version="1.0" encoding="UTF-8" standalone="no"?>
<!DOCTYPE svg PUBLIC "-//W3C//DTD SVG 1.1//EN" "http://www.w3.org/Graphics/SVG/1.1/DTD/svg11.dtd">
<svg width="100%" height="100%" viewBox="0 0 200 200" version="1.1" xmlns="http://www.w3.org/2000/svg" xmlns:xlink="http://www.w3.org/1999/xlink" xml:space="preserve" xmlns:serif="http://www.serif.com/" style="fill-rule:evenodd;clip-rule:evenodd;stroke-linejoin:round;stroke-miterlimit:2;">
    <g transform="matrix(1,0,0,1,-1554.08,-161.287)">
        <g id="Main-Logo" serif:id="Main Logo" transform="matrix(1,0,0,1,-10.1749,-254.372)">
            <path d="M1712.67,603.159C1698.33,611.122 1681.82,615.659 1664.26,615.659C1646.69,615.659 1630.18,611.122 1615.84,603.159L1712.67,603.159Z" style="fill:rgb(216,123,79);"/>
            <path d="M1731.76,488.159L1731.76,583.159L1596.76,583.159L1596.76,448.159L1731.76,448.159L1731.76,468.159L1616.76,468.159L1616.76,563.159L1711.76,563.159L1711.76,503.159L1691.76,503.159L1691.76,488.159L1731.76,488.159Z" style="fill:rgb(216,123,79);"/>
            <path d="M1576.76,467.24L1576.76,564.078C1568.79,549.731 1564.26,533.221 1564.26,515.659C1564.26,498.097 1568.79,481.586 1576.76,467.24Z" style="fill:rgb(216,123,79);"/>
            <path d="M1751.76,467.24C1759.72,481.586 1764.26,498.097 1764.26,515.659C1764.26,533.221 1759.72,549.731 1751.76,564.078L1751.76,467.24Z" style="fill:rgb(216,123,79);"/>
            <path d="M1656.76,523.159L1691.76,523.159L1691.76,543.159L1636.76,543.159L1636.76,488.159L1656.76,488.159L1656.76,523.159Z" style="fill:rgb(130,173,228);"/>
            <path d="M1615.84,428.159C1630.18,420.196 1646.69,415.659 1664.26,415.659C1681.82,415.659 1698.33,420.196 1712.67,428.159L1615.84,428.159Z" style="fill:rgb(216,123,79);"/>
        </g>
    </g>
</svg>
